<?xml version="1.0" encoding="UTF-8"?>
<svg xmlns="http://www.w3.org/2000/svg" xmlns:xlink="http://www.w3.org/1999/xlink" width="100px" height="100px" viewBox="0 0 100 100" version="1.1">
<g id="surface1">
<path style=" stroke:none;fill-rule:nonzero;fill:rgb(25.098039%,25.098039%,25.098039%);fill-opacity:1;" d="M 26.316406 89.472656 C 17.367188 89.472656 10.527344 83.683594 10.527344 76.316406 C 10.527344 68.949219 17.367188 63.15625 26.316406 63.15625 C 35.261719 63.15625 42.105469 68.949219 42.105469 76.316406 C 42.105469 83.683594 35.261719 89.472656 26.316406 89.472656 Z M 26.316406 68.421875 C 20.527344 68.421875 15.789062 72.105469 15.789062 76.316406 C 15.789062 80.527344 20.527344 84.210938 26.316406 84.210938 C 32.105469 84.210938 36.84375 80.527344 36.84375 76.316406 C 36.84375 72.105469 32.105469 68.421875 26.316406 68.421875 Z M 26.316406 68.421875 "/>
<path style=" stroke:none;fill-rule:nonzero;fill:rgb(25.098039%,25.098039%,25.098039%);fill-opacity:1;" d="M 39.472656 73.683594 C 37.894531 73.683594 36.84375 72.632812 36.84375 71.050781 L 36.84375 26.84375 L 78.949219 14.738281 L 78.949219 60.527344 C 78.949219 62.105469 77.894531 63.15625 76.316406 63.15625 C 74.738281 63.15625 73.683594 62.105469 73.683594 60.527344 L 73.683594 22.105469 L 42.105469 31.050781 L 42.105469 71.050781 C 42.105469 72.632812 41.050781 73.683594 39.472656 73.683594 Z M 39.472656 73.683594 "/>
<path style=" stroke:none;fill-rule:nonzero;fill:rgb(25.098039%,25.098039%,25.098039%);fill-opacity:1;" d="M 63.15625 78.949219 C 54.210938 78.949219 47.367188 73.15625 47.367188 65.789062 C 47.367188 58.421875 54.210938 52.632812 63.15625 52.632812 C 72.105469 52.632812 78.949219 58.421875 78.949219 65.789062 C 78.949219 73.15625 72.105469 78.949219 63.15625 78.949219 Z M 63.15625 57.894531 C 57.367188 57.894531 52.632812 61.578125 52.632812 65.789062 C 52.632812 70 57.367188 73.683594 63.15625 73.683594 C 68.949219 73.683594 73.683594 70 73.683594 65.789062 C 73.683594 61.578125 68.949219 57.894531 63.15625 57.894531 Z M 63.15625 57.894531 "/>
<path style=" stroke:none;fill-rule:nonzero;fill:rgb(25.098039%,25.098039%,25.098039%);fill-opacity:1;" d="M 38.875 41.199219 L 75.535156 31.605469 L 76.867188 36.699219 L 40.207031 46.289062 Z M 38.875 41.199219 "/>
</g>
</svg>
